<svg width="20" height="20" viewBox="0 0 20 20" fill="none" xmlns="http://www.w3.org/2000/svg">
<path d="M17.5449 9.63417C18.7817 8.65589 18.7817 7.06978 17.5449 6.09151C16.3081 5.11323 14.3029 5.11323 13.0661 6.09151C11.8293 7.06978 11.8293 8.65589 13.0661 9.63417C14.3029 10.6124 16.3081 10.6124 17.5449 9.63417Z" fill="white"/>
<path d="M16.331 8.37591C16.8977 7.92766 16.8977 7.20091 16.331 6.75267C15.7643 6.30442 14.8455 6.30442 14.2788 6.75266C13.7121 7.20091 13.7121 7.92766 14.2788 8.37591C14.8455 8.82415 15.7643 8.82415 16.331 8.37591Z" fill="#1D1D1B"/>
<path d="M17.8767 1.45052C17.0053 0.961715 16.4094 0.825224 15.7801 0.762523L15.7553 0.759964C15.4922 0.733519 15.3061 0.543711 15.3396 0.335988C15.3687 0.153431 15.5569 0.0177932 15.7801 0.00499716C16.129 -0.0154765 16.4828 0.02803 16.808 0.115896C17.7883 0.382054 18.5805 1.05598 18.8997 1.66251C18.9838 1.82246 18.7498 1.9709 18.5708 1.87023C18.4419 1.79772 18.3276 1.70517 17.8773 1.45052H17.8767Z" fill="white"/>
<path d="M15.305 10.4959C13.4694 10.4959 11.9762 9.31478 11.9762 7.86286C11.9762 6.41093 13.4694 5.22986 15.305 5.22986C17.1406 5.22986 18.6338 6.41093 18.6338 7.86286C18.6338 9.31478 17.1406 10.4959 15.305 10.4959ZM15.305 5.48621C13.6479 5.48621 12.2997 6.55254 12.2997 7.86329C12.2997 9.17403 13.6479 10.2404 15.305 10.2404C16.9621 10.2404 18.3102 9.17403 18.3102 7.86329C18.3102 6.55254 16.9621 5.48621 15.305 5.48621Z" fill="#1D1D1B"/>
<path d="M14.9555 4.1908C16.4589 4.09952 18.1839 4.95899 18.8995 6.02021C18.933 6.06969 18.9092 6.13153 18.8467 6.15798C18.7976 6.17845 18.7399 6.17163 18.7005 6.14433C17.7504 5.47766 17.079 5.15562 15.9353 4.81781C15.616 4.72397 14.8962 4.54397 14.9015 4.54525C14.7808 4.51411 14.715 4.41089 14.7543 4.31535C14.784 4.24326 14.8654 4.19592 14.9555 4.19037V4.1908Z" fill="white"/>
<path d="M14.193 10.8491C15.1319 10.0182 17.0802 9.54563 18.4612 9.64374C18.5324 9.64886 18.5847 9.69833 18.5782 9.75464C18.5733 9.79814 18.5345 9.83269 18.4844 9.84378C16.2681 10.3305 15.8496 10.6248 14.4637 11.1358C14.3462 11.1797 14.2092 11.1383 14.1558 11.0479C14.1159 10.9796 14.1337 10.902 14.193 10.8491Z" fill="#1D1D1B"/>
<path d="M15.6727 8.14746C15.8961 8.14746 16.0772 8.00424 16.0772 7.82756C16.0772 7.65088 15.8961 7.50766 15.6727 7.50766C15.4494 7.50766 15.2683 7.65088 15.2683 7.82756C15.2683 8.00424 15.4494 8.14746 15.6727 8.14746Z" fill="white"/>
<path d="M6.71823 9.63417C7.95502 8.65589 7.95502 7.06979 6.71823 6.09151C5.48144 5.11323 3.4762 5.11323 2.23941 6.09151C1.00262 7.06979 1.00262 8.65589 2.23941 9.63417C3.4762 10.6124 5.48144 10.6124 6.71823 9.63417Z" fill="white"/>
<path d="M4.81336 8.68425C5.59336 8.53863 6.07643 7.92044 5.89233 7.30347C5.70824 6.68651 4.92669 6.3044 4.14669 6.45002C3.36669 6.59564 2.88361 7.21383 3.06771 7.8308C3.25181 8.44776 4.03336 8.82986 4.81336 8.68425Z" fill="#1D1D1B"/>
<path d="M0.884548 1.66267C1.00426 1.43575 1.19408 1.20201 1.38605 1.01775C2.03099 0.391594 3.00703 -0.0532821 4.0041 0.00515315C4.26833 0.0205084 4.46677 0.202639 4.44736 0.411641C4.4301 0.595051 4.25108 0.73794 4.02891 0.76012C3.77438 0.785285 3.53765 0.81557 3.29283 0.87827C3.04963 0.937559 2.79187 1.0267 2.59235 1.11201C1.92746 1.39182 1.32619 1.80641 1.24099 1.85461L1.21403 1.86996C1.03554 1.97063 0.800425 1.82305 0.884548 1.66224V1.66267Z" fill="white"/>
<path d="M4.4799 10.4959C2.6443 10.4959 1.15112 9.31478 1.15112 7.86286C1.15112 6.41093 2.6443 5.22986 4.4799 5.22986C6.3155 5.22986 7.80868 6.41093 7.80868 7.86286C7.80868 9.31478 6.3155 10.4959 4.4799 10.4959ZM4.4799 5.48621C2.82279 5.48621 1.47467 6.55254 1.47467 7.86329C1.47467 9.17403 2.82279 10.2404 4.4799 10.2404C6.13701 10.2404 7.48513 9.17403 7.48513 7.86329C7.48513 6.55254 6.13701 5.48621 4.4799 5.48621Z" fill="#1D1D1B"/>
<path d="M4.88124 4.54657C3.49753 4.90529 2.69189 5.10619 1.50986 5.85603C1.3001 5.99167 1.08062 6.14821 1.08601 6.14437C1.03263 6.18191 0.951203 6.17807 0.904288 6.13627C0.867619 6.10342 0.86223 6.05693 0.887035 6.02068C1.59776 4.96628 3.31851 4.09956 4.8311 4.19127C4.95782 4.19895 5.05272 4.28639 5.04302 4.38662C5.03547 4.46297 4.96968 4.52525 4.88178 4.54657H4.88124Z" fill="white"/>
<path d="M5.3206 11.1353C4.12077 10.693 3.57775 10.3769 1.83598 9.96145C1.63376 9.91496 1.29511 9.84202 1.3005 9.8433C1.23202 9.82837 1.19158 9.77207 1.21045 9.7179C1.22501 9.67567 1.27138 9.64709 1.32315 9.64325C2.70686 9.54515 4.65409 10.019 5.5913 10.8486C5.67596 10.9237 5.66787 11.0393 5.57296 11.1063C5.49855 11.1587 5.39286 11.1647 5.3206 11.1353Z" fill="#1D1D1B"/>
<path d="M4.84657 8.14746C5.06994 8.14746 5.25101 8.00424 5.25101 7.82756C5.25101 7.65088 5.06994 7.50766 4.84657 7.50766C4.62321 7.50766 4.44214 7.65088 4.44214 7.82756C4.44214 8.00424 4.62321 8.14746 4.84657 8.14746Z" fill="white"/>
<path d="M18.8981 13.3634C18.4268 13.0934 18.1604 12.9305 17.5095 12.6221C16.9304 12.3474 16.4046 12.1312 16.0272 11.9192C15.812 11.798 15.9355 11.5374 16.19 11.5502C17.3898 11.6121 18.8393 12.2886 19.2475 13.163C19.3225 13.3233 19.0912 13.4748 18.8981 13.3634Z" fill="#1D1D1B"/>
<path d="M0.537486 13.1632C0.948393 12.2824 2.40382 11.6119 3.59502 11.5504C3.7363 11.5432 3.85818 11.6281 3.86734 11.7398C3.87328 11.8123 3.83013 11.8784 3.76057 11.9181C3.25583 12.2039 2.42701 12.5157 1.57661 12.9738C1.34527 13.0966 0.873975 13.3713 0.879368 13.3683C0.702494 13.4698 0.461452 13.3295 0.537486 13.1632Z" fill="#1D1D1B"/>
<path d="M9.94218 18.1709C8.73858 18.1709 7.6067 18.2605 6.61987 18.417C7.59699 19.1148 8.71054 19.5738 9.94218 19.5738C11.1738 19.5738 12.2874 19.1148 13.2645 18.417C12.2777 18.2601 11.1458 18.1709 9.94218 18.1709Z" fill="white"/>
<path d="M14.9858 14.4387C15.4005 14.0915 15.6415 13.639 15.6766 13.1643C12.7317 14.2656 9.94113 14.2391 9.94113 14.2391C9.94113 14.2391 7.15052 14.266 4.20569 13.1643C4.24074 13.6386 4.48179 14.0915 4.89647 14.4387C6.16154 15.4983 7.95346 16.159 9.94113 16.159C11.9288 16.159 13.7207 15.4978 14.9858 14.4387Z" fill="white"/>
<path d="M9.94262 13.8972C10.6415 13.8984 11.8764 13.7875 12.916 13.5964C14.6794 13.2701 16.0539 12.8308 17.5967 12.0741C17.7552 11.9965 17.9515 12.1198 17.889 12.261C17.8356 12.4725 17.7687 12.6807 17.6986 12.888C17.0844 14.6487 15.9094 16.6654 14.4044 18.0631C12.3121 20.0188 10.0586 20.3314 8.1809 19.7159C5.74835 18.9136 4.00873 16.6504 2.98901 14.7088C2.60291 13.9611 2.20171 13.0522 2.00272 12.2597C1.94179 12.1249 2.12999 12.0029 2.28475 12.078C3.88362 12.8607 5.27866 13.2864 6.96866 13.5981C8.00078 13.7871 9.23782 13.8989 9.94262 13.8972ZM9.94262 14.5809C8.83446 14.5775 7.20701 14.3732 5.76021 13.9705C4.40939 13.59 3.17505 13.0816 2.07606 12.345L2.38559 12.1769C2.38559 12.1816 2.53766 12.513 2.666 12.7613C3.36487 14.1526 4.51023 15.8793 5.73217 17.08C8.24345 19.556 10.553 19.5803 12.5515 18.3544C14.5526 17.1435 16.2896 14.6018 17.2133 12.76C17.3379 12.5182 17.4932 12.1803 17.4932 12.1761L17.8124 12.3493C15.9644 13.5862 13.4742 14.3113 11.0195 14.528C10.7008 14.5561 10.2694 14.5805 9.94208 14.5813L9.94262 14.5809Z" fill="#1D1D1B"/>
</svg>
