<svg width="29" height="20" viewBox="0 0 29 20" fill="none" xmlns="http://www.w3.org/2000/svg">
<path d="M20.1562 18.8252C20.0046 18.2943 19.757 17.5576 19.4005 17.1883C19.2067 17.006 19.0276 16.9763 18.8034 16.9791C18.1209 16.9991 16.8242 17.6108 15.1793 17.7337C14.6267 17.7882 13.8523 17.7896 13.2845 17.7337C12.6616 17.6867 12.0183 17.5562 11.4095 17.3995C10.1615 17.0709 9.52105 16.7581 9.06329 17.1883C8.70679 17.5576 8.45859 18.2957 8.30756 18.8252C8.19634 19.2146 7.8615 19.3824 7.57115 19.2671C7.22753 19.1304 7.06656 18.6526 7.26032 18.268C7.27612 18.237 7.61974 17.5293 7.78833 17.2711C7.97214 16.9749 8.17409 16.6753 8.44044 16.4433C9.86584 15.242 10.8346 17.0578 14.2328 17.0806C17.4986 17.0585 18.5663 15.3539 19.9022 16.3411C20.508 16.8141 20.8528 17.5776 21.2052 18.268C21.3703 18.5912 21.2819 19.0102 21.0079 19.2049C20.6983 19.4245 20.2797 19.2636 20.1574 18.8252H20.1562Z" fill="#1D1D1B"/>
<path d="M16.5095 19.9989C15.8797 19.9388 15.2059 19.8208 14.2318 19.8201C13.2543 19.8201 12.5682 19.9402 11.9535 19.9989C11.7311 20.0203 11.6287 19.6979 11.7967 19.5398C13.1032 18.333 15.402 18.373 16.6658 19.5398C16.8356 19.6965 16.7308 20.021 16.509 19.9989H16.5095Z" fill="#1D1D1B"/>
<path d="M25.3964 3.60125C22.9015 4.71142 21.3017 6.9856 19.4899 6.31108C19.4893 6.34698 19.4876 6.38219 19.4876 6.41878C19.4876 8.65775 21.0265 10.4735 22.9255 10.4735C24.8245 10.4735 26.3634 8.65844 26.3634 6.41878C26.3634 5.3238 25.9947 4.3317 25.397 3.60194L25.3964 3.60125Z" fill="white"/>
<path d="M22.9257 10.6791C20.8716 10.6791 19.249 8.64447 19.3139 6.33784L19.321 6.02992L19.5434 6.11277C21.2615 6.75277 22.7659 4.5497 25.4434 3.35876L25.5236 3.4568C26.1787 4.25628 26.5393 5.30776 26.5393 6.41793C26.5393 8.76805 24.9184 10.6798 22.9257 10.6798V10.6791ZM19.6663 6.57879C19.7383 8.62583 21.1725 10.2648 22.9257 10.2648C24.6789 10.2648 26.188 8.53884 26.188 6.41724C26.188 5.46034 25.8913 4.55177 25.3498 3.84411C23.0182 4.92528 21.4523 7.02755 19.6669 6.57879H19.6663Z" fill="#1D1D1B"/>
<path d="M24.1261 4.44362C24.6014 4.17229 25.082 3.97898 25.5925 3.86161C24.962 2.94821 24.002 2.36413 22.9255 2.36413C21.0271 2.36413 19.4876 4.17919 19.4876 6.41885C19.4876 6.57419 19.4958 6.72747 19.5104 6.87797C20.7081 6.57213 21.9046 5.63525 23.4108 4.9628C23.6309 4.76466 23.8703 4.59067 24.1261 4.44431V4.44362Z" fill="#BDBDBD"/>
<path d="M23.2864 8.23061C24.1331 7.99491 24.6575 6.99428 24.4577 5.99564C24.2578 4.99701 23.4094 4.37853 22.5627 4.61423C21.716 4.84993 21.1916 5.85055 21.3914 6.84919C21.5913 7.84782 22.4397 8.46631 23.2864 8.23061Z" fill="#1D1D1B"/>
<path d="M18.3418 5.28899C18.9482 5.54444 19.5412 5.57689 20.1752 5.55341C21.463 5.46228 23.0857 3.73973 25.2135 2.99893C26.1981 2.64682 27.2571 2.53774 28.2505 2.7345C28.3892 2.76212 28.4835 2.91677 28.4601 3.08108C28.4407 3.21709 28.3471 3.31582 28.2364 3.33032C25.635 3.66792 24.2857 5.12536 22.577 6.36187C21.8459 6.8921 21.0538 7.32912 20.1916 7.31531C19.3592 7.30979 18.518 7.14893 17.7868 6.67117C17.5334 6.50548 17.2934 6.30526 17.0838 6.06155C16.8537 5.79436 16.8508 5.35734 17.0774 5.08532C17.2688 4.8561 17.5632 4.81813 17.7886 4.97278C17.9742 5.10051 18.1316 5.20062 18.3412 5.2883L18.3418 5.28899Z" fill="#1D1D1B"/>
<path d="M3.06678 3.60125C5.56166 4.71142 7.1615 6.9856 8.97325 6.31108C8.97384 6.34698 8.9756 6.38219 8.9756 6.41878C8.9756 8.65775 7.43663 10.4735 5.53766 10.4735C3.63869 10.4735 2.09973 8.65844 2.09973 6.41878C2.09973 5.3238 2.46852 4.3317 3.06619 3.60194L3.06678 3.60125Z" fill="white"/>
<path d="M5.53774 10.6791C3.54511 10.6791 1.92419 8.76737 1.92419 6.41725C1.92419 5.30708 2.28479 4.2556 2.93983 3.45612L3.02002 3.35808C5.70633 4.55316 7.19788 6.75278 8.92006 6.11209L9.1425 6.02924L9.14953 6.33785C9.21333 8.60237 7.62403 10.6784 5.53774 10.6784V10.6791ZM3.11369 3.84412C2.57221 4.55248 2.27542 5.46104 2.27542 6.41725C2.27542 8.53885 3.73887 10.2649 5.53774 10.2649C7.33661 10.2649 8.72513 8.62584 8.79713 6.5788C7.01172 7.02756 5.44701 4.92598 3.11427 3.84412H3.11369Z" fill="#1D1D1B"/>
<path d="M4.33664 4.44362C3.86132 4.17229 3.38072 3.97898 2.87027 3.86161C3.50072 2.94821 4.46074 2.36413 5.53726 2.36413C7.43564 2.36413 8.97519 4.17919 8.97519 6.41885C8.97519 6.57419 8.96699 6.72747 8.95236 6.87797C7.75467 6.57213 6.55816 5.63525 5.05198 4.9628C4.83188 4.76466 4.59245 4.59067 4.33664 4.44431V4.44362Z" fill="#BDBDBD"/>
<path d="M7.06999 6.84158C7.26984 5.84295 6.74543 4.84232 5.89871 4.60662C5.05198 4.37092 4.20357 4.9894 4.00373 5.98804C3.80388 6.98667 4.32828 7.9873 5.17501 8.223C6.02173 8.4587 6.87015 7.84022 7.06999 6.84158Z" fill="#1D1D1B"/>
<path d="M11.3795 6.06158C11.1699 6.3046 10.9299 6.50481 10.6765 6.6712C9.94532 7.14896 9.10413 7.30982 8.27172 7.31534C6.09294 7.34917 4.52764 4.61657 1.59372 3.63343C1.14239 3.48293 0.68638 3.38972 0.23037 3.33035C0.0816833 3.31102 -0.0131501 3.15775 0.00148438 2.99826C0.0143627 2.86156 0.103343 2.75593 0.212809 2.73453C1.2062 2.53846 2.26515 2.64685 3.24976 2.99896C5.37585 3.73907 7.00086 5.46231 8.28811 5.55344C8.91915 5.57691 9.51331 5.54516 10.1215 5.28902C10.4078 5.16958 10.68 4.96936 10.6741 4.9735C10.9533 4.78157 11.3116 4.89272 11.4743 5.22204C11.6119 5.50028 11.5657 5.84548 11.3795 6.06158Z" fill="#1D1D1B"/>
<path d="M13.9907 3.21179C13.8894 2.57248 13.9562 1.61558 14.0042 0.918968C14.0241 0.66421 14.0469 0.409451 14.0803 0.154693C14.0931 0.0552748 14.1722 -0.0130765 14.2565 0.00211238C14.3249 0.0145396 14.3759 0.0780581 14.3858 0.154693C14.4508 0.651091 14.4818 1.18615 14.5076 1.68324C14.5216 2.0892 14.5614 2.6643 14.4748 3.21179C14.4496 3.3692 14.3214 3.47345 14.188 3.44377C14.0855 3.42098 14.0094 3.32571 13.9913 3.21179H13.9907Z" fill="#1D1D1B"/>
<path d="M16.6666 2.94522C16.7005 2.6877 16.7795 2.41224 16.8708 2.1706C17.0008 1.82539 17.2262 1.38975 17.3971 1.12809C17.5991 0.808431 17.8631 0.488776 18.1546 0.274751C18.2266 0.221591 18.3214 0.247828 18.3665 0.332747C18.4028 0.401787 18.3952 0.488086 18.353 0.54677C17.7876 1.32485 17.5669 2.10086 17.2748 2.79472C17.1618 3.06121 17.1161 3.14406 17.1196 3.13716C17.05 3.27386 16.9001 3.31873 16.7836 3.23658C16.6958 3.17444 16.6525 3.05707 16.6671 2.94453L16.6666 2.94522Z" fill="#1D1D1B"/>
<path d="M11.3331 3.10612C10.996 2.44127 10.7694 1.44018 10.112 0.537136C9.98852 0.367298 10.1589 0.151203 10.3052 0.258216C10.5066 0.405962 10.6828 0.593748 10.8414 0.794655C11.26 1.36147 11.6961 2.18927 11.7927 2.92869C11.8331 3.2373 11.4818 3.4023 11.3331 3.10612Z" fill="#1D1D1B"/>
</svg>
