<svg width="24" height="20" viewBox="0 0 24 20" fill="none" xmlns="http://www.w3.org/2000/svg">
<path d="M22.4366 19.4663C19.4012 17.7673 14.5314 17.2883 10.2912 17.4367C8.86745 17.4921 7.43132 17.6144 5.9952 17.8636C4.19256 18.1745 2.40163 18.6977 1.08507 19.4622C0.839435 19.605 0.43784 19.6065 0.188954 19.466C-0.0605809 19.3254 -0.0631806 19.0956 0.182456 18.9532C0.227294 18.9271 0.271483 18.91 0.264984 18.913C1.56205 18.3753 2.96113 17.9826 4.36347 17.7223C7.58078 17.121 11.4083 16.9919 14.7341 17.1983C17.8397 17.3895 20.6781 17.8874 23.2404 18.9089C23.5374 19.0279 23.5952 19.254 23.4003 19.4146C23.1819 19.5942 22.7277 19.627 22.4372 19.4667L22.4366 19.4663Z" fill="#1D1D1B"/>
<path d="M7.93738 19.7201C9.98519 18.5463 13.4595 18.5442 15.5118 19.7201C15.5998 19.7704 15.6192 19.8671 15.5552 19.9362C15.5047 19.9901 15.4186 20.0115 15.3409 19.9937C14.7338 19.8554 14.1572 19.745 13.5365 19.6712C12.3657 19.5294 11.1269 19.5243 9.91335 19.6712C8.96776 19.7836 8.09789 19.9962 8.1089 19.9937C8.00469 20.0176 7.89531 19.9708 7.8649 19.8884C7.84095 19.8243 7.87266 19.7572 7.93803 19.7201H7.93738Z" fill="#1D1D1B"/>
<path d="M1.57042 3.12011C1.72446 2.03478 2.9011 0.526311 4.04021 0.0497651C4.30039 -0.0590726 4.62336 0.0182339 4.76186 0.222686C4.87318 0.38696 4.83111 0.583782 4.67513 0.710928C4.42919 0.911312 4.42142 0.905715 3.97031 1.30038C3.27649 1.91323 1.9115 3.24115 1.91668 3.23606C1.79306 3.35304 1.54971 3.2737 1.56977 3.12011H1.57042Z" fill="#1D1D1B"/>
<path d="M21.5933 3.23327C21.315 2.97033 19.8452 1.52594 19.2031 1.00719C19.1255 0.940561 18.8316 0.705596 18.8381 0.710682C18.6329 0.544374 18.6388 0.27889 18.8504 0.117668C19.0206 -0.0120221 19.2737 -0.0338901 19.4724 0.0490096C20.649 0.541322 21.792 2.06251 21.9422 3.11935C21.9635 3.27142 21.7208 3.35432 21.5927 3.23276L21.5933 3.23327Z" fill="#1D1D1B"/>
<path d="M17.6352 4.36835C19.4332 4.26002 21.5075 5.27973 22.369 6.54968C22.4091 6.60918 22.3806 6.68242 22.3056 6.71395C22.2467 6.73836 22.1774 6.73022 22.1302 6.69767C20.9898 5.90275 20.1846 5.51877 18.8112 5.11597C18.4281 5.00408 17.564 4.78945 17.5705 4.79098C17.4255 4.75385 17.3466 4.63077 17.3938 4.51685C17.4294 4.4309 17.5271 4.37445 17.6352 4.36784V4.36835Z" fill="#1D1D1B"/>
<path d="M5.93941 4.79203C4.27864 5.21975 3.3117 5.45929 1.89299 6.35339C1.64122 6.51512 1.3778 6.70177 1.38427 6.69719C1.3202 6.74195 1.22247 6.73738 1.16616 6.68753C1.12215 6.64837 1.11568 6.59294 1.14545 6.54971C2.00366 5.28485 4.07283 4.25954 5.87922 4.36838C6.03132 4.37753 6.14523 4.48179 6.13358 4.60131C6.12516 4.6898 6.04879 4.76558 5.94006 4.79203H5.93941Z" fill="#1D1D1B"/>
<path d="M22.022 9.05099C22.2989 7.41576 20.8364 5.91375 18.7555 5.69615C16.6745 5.47854 14.7631 6.62775 14.4861 8.26297C14.2092 9.89819 15.6717 11.4002 17.7527 11.6178C19.8336 11.8354 21.7451 10.6862 22.022 9.05099Z" fill="white"/>
<path d="M18.7086 8.19811C19.3887 7.66364 19.3887 6.79709 18.7086 6.26261C18.0284 5.72814 16.9256 5.72814 16.2455 6.26261C15.5653 6.79708 15.5653 7.66364 16.2455 8.19812C16.9256 8.73259 18.0284 8.73259 18.7086 8.19811Z" fill="#BDBDBD"/>
<path d="M18.2533 11.7932C16.0502 11.7932 14.2581 10.3849 14.2581 8.65364C14.2581 6.92241 16.0502 5.51413 18.2533 5.51413C20.4565 5.51413 22.2486 6.92241 22.2486 8.65364C22.2486 10.3849 20.4565 11.7932 18.2533 11.7932ZM18.2533 5.81979C16.2644 5.81979 14.6464 7.09126 14.6464 8.65415C14.6464 10.217 16.2644 11.4885 18.2533 11.4885C20.2423 11.4885 21.8603 10.217 21.8603 8.65415C21.8603 7.09126 20.2423 5.81979 18.2533 5.81979Z" fill="#1D1D1B"/>
<path d="M6.5906 11.4528C8.55541 10.8718 9.54888 9.14926 8.80957 7.60531C8.07027 6.06135 5.87814 5.28068 3.91332 5.86163C1.94851 6.44258 0.955043 8.16516 1.69435 9.70911C2.43366 11.2531 4.62578 12.0337 6.5906 11.4528Z" fill="white"/>
<path d="M4.88219 8.56217C5.81894 8.39047 6.4012 7.65455 6.18269 6.91845C5.96419 6.18235 5.02766 5.72482 4.09091 5.89652C3.15416 6.06822 2.57191 6.80414 2.79042 7.54024C3.00892 8.27634 3.94544 8.73388 4.88219 8.56217Z" fill="#BDBDBD"/>
<path d="M5.26018 11.7932C3.05705 11.7932 1.26489 10.3849 1.26489 8.65364C1.26489 6.92241 3.05705 5.51413 5.26018 5.51413C7.46332 5.51413 9.25547 6.92241 9.25547 8.65364C9.25547 10.3849 7.46332 11.7932 5.26018 11.7932ZM5.26018 5.81979C3.27128 5.81979 1.65322 7.09126 1.65322 8.65415C1.65322 10.217 3.27128 11.4885 5.26018 11.4885C7.24909 11.4885 8.86714 10.217 8.86714 8.65415C8.86714 7.09126 7.24909 5.81979 5.26018 5.81979Z" fill="#1D1D1B"/>
</svg>
