<svg width="24" height="24" viewBox="0 0 24 24" fill="none" xmlns="http://www.w3.org/2000/svg">
<g clip-path="url(#clip0_1_267)">
<path fill-rule="evenodd" clip-rule="evenodd" d="M8.7707 0.0507272C8.17196 0.16829 7.56639 0.638071 7.31153 1.18271C7.13903 1.55134 7.07814 1.8677 7.07814 2.39532V2.80913L4.79298 2.82254C2.56839 2.83557 2.50206 2.83862 2.2899 2.93668C2.01067 3.06577 1.70551 3.37131 1.57829 3.64927C1.43968 3.95199 1.43968 4.48552 1.57829 4.78824C1.70551 5.06621 2.01067 5.37174 2.2899 5.50084L2.50782 5.60157H12H21.4922L21.7101 5.50084C21.9894 5.37174 22.2945 5.06621 22.4217 4.78824C22.5603 4.48552 22.5603 3.95199 22.4217 3.64927C22.2945 3.37131 21.9894 3.06577 21.7101 2.93668C21.498 2.83862 21.4316 2.83557 19.207 2.82254L16.9219 2.80913V2.39532C16.9219 2.16774 16.9004 1.86802 16.874 1.72927C16.7144 0.887399 16.0345 0.207524 15.1926 0.0478678C14.8834 -0.0107728 9.07074 -0.00819469 8.7707 0.0507272ZM8.84818 1.50291C8.57874 1.64518 8.48439 1.87496 8.48439 2.38876V2.81251H12H15.5156V2.38876C15.5156 1.86662 15.4217 1.6434 15.1419 1.50062C14.9621 1.40893 14.8731 1.40631 11.9902 1.40832C9.12906 1.41034 9.01721 1.41371 8.84818 1.50291ZM2.93228 7.23048C2.94559 7.34007 3.22937 10.7414 3.56293 14.7891C3.8965 18.8367 4.18318 22.2223 4.20001 22.3125C4.2526 22.5948 4.50479 23.0716 4.72735 23.3095C5.00743 23.609 5.43114 23.8529 5.8112 23.9335C6.26434 24.0296 17.7357 24.0296 18.1888 23.9335C18.5689 23.8529 18.9926 23.609 19.2727 23.3095C19.4952 23.0716 19.7474 22.5948 19.8 22.3125C19.8168 22.2223 20.1035 18.8367 20.4371 14.7891C20.7707 10.7414 21.0544 7.34007 21.0677 7.23048L21.092 7.03126H12H2.90804L2.93228 7.23048ZM7.45314 8.52062C7.35573 8.57335 7.24407 8.69359 7.17831 8.81645L7.06749 9.02345L7.42735 14.8359C7.82542 21.2657 7.78107 20.8755 8.13695 21.084C8.49296 21.2926 8.94409 21.1495 9.11326 20.7744C9.19445 20.5944 9.18793 20.4537 8.8366 14.7833C8.55395 10.2212 8.46132 8.94371 8.40451 8.82329C8.24748 8.49048 7.7821 8.3424 7.45314 8.52062ZM11.6607 8.53416C11.5536 8.59074 11.4488 8.69855 11.3912 8.81148C11.2982 8.99368 11.2969 9.07815 11.2969 14.8125C11.2969 20.5492 11.2982 20.6313 11.3912 20.8137C11.4974 21.0217 11.7674 21.1875 12 21.1875C12.2326 21.1875 12.5027 21.0217 12.6088 20.8137C12.7018 20.6313 12.7031 20.5492 12.7031 14.8125C12.7031 9.0758 12.7018 8.99373 12.6088 8.81129C12.4358 8.47224 12.0124 8.34849 11.6607 8.53416ZM15.9105 8.52952C15.5121 8.73226 15.5672 8.27101 15.1635 14.7833C14.8121 20.4538 14.8056 20.5944 14.8868 20.7744C15.0559 21.1495 15.5071 21.2926 15.8631 21.084C16.2189 20.8755 16.1747 21.2653 16.5718 14.8417C16.9223 9.17162 16.9288 9.03066 16.8476 8.85066C16.6827 8.48485 16.2737 8.34474 15.9105 8.52952Z" fill="white"/>
</g>
<defs>
<clipPath id="clip0_1_267">
<rect width="24" height="24" fill="white"/>
</clipPath>
</defs>
</svg>
