<svg width="8" height="8" viewBox="0 0 8 8" fill="none" xmlns="http://www.w3.org/2000/svg">
<path d="M0.401042 7.21875C0.287413 7.21875 0.192233 7.18025 0.1155 7.10325C0.0387674 7.02625 0.000267361 6.93107 0 6.81771V5.84518C0 5.73824 0.0200521 5.63624 0.0601563 5.53919C0.10026 5.44214 0.157075 5.35698 0.230599 5.28372L5.29375 0.230599C5.37396 0.157075 5.46259 0.10026 5.55964 0.0601563C5.65669 0.0200521 5.75856 0 5.86523 0C5.97191 0 6.07551 0.0200521 6.17604 0.0601563C6.27657 0.10026 6.36346 0.160417 6.43672 0.240625L6.98815 0.802083C7.06836 0.875608 7.12678 0.9625 7.16341 1.06276C7.20003 1.16302 7.21848 1.26328 7.21875 1.36354C7.21875 1.47049 7.2003 1.57248 7.16341 1.66954C7.12651 1.76659 7.06809 1.85508 6.98815 1.93503L1.93503 6.98815C1.8615 7.06168 1.77621 7.11849 1.67916 7.15859C1.58211 7.1987 1.48024 7.21875 1.37357 7.21875H0.401042ZM5.85521 1.925L6.41667 1.36354L5.85521 0.802083L5.29375 1.36354L5.85521 1.925Z" fill="white"/>
</svg>
