<svg width="20" height="20" viewBox="0 0 20 20" fill="none" xmlns="http://www.w3.org/2000/svg">
<path fill-rule="evenodd" clip-rule="evenodd" d="M12.5811 0.0558645C12.3805 0.143849 12.1077 0.436302 12.0429 0.632615C11.9013 1.06161 12.074 1.56168 12.4521 1.81776L12.6252 1.93494L14.5956 1.94816L16.566 1.96138L12.3629 6.16691C7.92845 10.6039 7.97087 10.5574 7.96961 10.9818C7.96895 11.1893 8.13915 11.5936 8.27959 11.7183C8.32928 11.7624 8.47286 11.8441 8.59862 11.8997C8.85812 12.0145 9.16389 12.0036 9.43042 11.8703C9.51559 11.8276 11.4778 9.90252 13.7908 7.59229L17.9964 3.39177L18.0096 5.36216L18.0228 7.33255L18.14 7.50561C18.2044 7.60077 18.3398 7.73633 18.4407 7.80679C18.6018 7.91933 18.668 7.93494 18.9837 7.93494C19.2995 7.93494 19.3657 7.91933 19.5268 7.80679C19.6277 7.73633 19.763 7.60077 19.8275 7.50552L19.9447 7.33246V3.97344V0.614427L19.8165 0.430958C19.7461 0.330037 19.6105 0.194708 19.5153 0.130255L19.3422 0.0130678L16.0341 0.00270835C13.3353 -0.00577603 12.6992 0.0040208 12.5811 0.0558645ZM2.78701 2.00647C1.50086 2.17804 0.417107 3.15243 0.0900601 4.43132C0.00259137 4.77318 -0.000596225 5.00788 6.00245e-05 10.9776C0.000810025 17.8886 -0.0201431 17.4393 0.335966 18.1761C0.493372 18.5018 0.605357 18.6509 0.956076 19.0017C1.30984 19.3554 1.45309 19.4626 1.78159 19.6193C2.53928 19.9807 2.06561 19.9584 8.98314 19.9584C14.9486 19.9584 15.1847 19.9551 15.5264 19.8677C16.4467 19.6323 17.2327 18.9956 17.6439 18.1525C17.9816 17.4597 17.9687 17.6354 17.9881 13.4662C17.9976 11.4037 17.992 9.60557 17.9756 9.47038C17.9168 8.98518 17.5479 8.62504 17.0619 8.57835C16.6684 8.54057 16.3398 8.71251 16.1152 9.07363L16.0072 9.24744L15.9837 13.1615L15.9603 17.0756L15.8567 17.2693C15.7164 17.5316 15.489 17.7504 15.2342 17.8683C15.0233 17.966 15.0091 17.9662 8.97592 17.9662H2.92904L2.70939 17.858C2.45954 17.7349 2.18317 17.4506 2.06903 17.1993C1.99825 17.0435 1.99154 16.5052 1.99154 10.9818C1.99154 4.94863 1.99178 4.93447 2.08942 4.72349C2.20736 4.46872 2.42617 4.24133 2.68839 4.10108C2.88203 3.99754 2.88451 3.99744 6.30404 3.97401C10.1369 3.94776 9.92059 3.96815 10.2209 3.60463C10.6059 3.13846 10.4746 2.42193 9.94731 2.11199L9.72592 1.98182L6.39779 1.9753C4.56733 1.97174 2.94245 1.98576 2.78701 2.00647Z" fill="white"/>
</svg>
