<svg width="27" height="20" viewBox="0 0 27 20" fill="none" xmlns="http://www.w3.org/2000/svg">
<path d="M8.47576 9.02757C9.08703 7.36324 7.93297 5.60874 5.89808 5.10878C3.8632 4.60883 1.71807 5.55274 1.1068 7.21707C0.495531 8.8814 1.6496 10.6359 3.68448 11.1359C5.71937 11.6358 7.8645 10.6919 8.47576 9.02757Z" fill="#BDBDBD"/>
<path d="M26.0224 8.90942C26.5551 7.22712 25.3196 5.51015 23.2627 5.07445C21.2059 4.63875 19.1066 5.64932 18.5739 7.33162C18.0412 9.01391 19.2768 10.7309 21.3336 11.1666C23.3905 11.6023 25.4897 10.5917 26.0224 8.90942Z" fill="#BDBDBD"/>
<path d="M1.13701 1.64803C1.96368 0.836879 3.83255 -0.00320541 5.14856 9.19649e-06C5.46888 0.00108073 5.72762 0.21378 5.72631 0.475771C5.72566 0.701329 5.53176 0.88992 5.27367 0.937068C4.56359 1.06726 4.77386 1.03565 4.55573 1.08012C3.39105 1.35872 2.5362 1.63571 1.45012 1.99146C1.18024 2.07986 0.960142 1.82216 1.13701 1.64803Z" fill="#1D1D1B"/>
<path d="M0.494753 8.61885C1.07841 8.24864 1.85006 8.02147 2.56865 7.88003C5.06441 7.39784 7.69183 7.87253 9.05434 8.64939C9.15391 8.70618 9.1788 8.8187 9.10936 8.90013C9.04648 8.97407 8.92791 8.99764 8.83162 8.95907C8.21456 8.71154 7.53986 8.55563 6.85795 8.4533C5.43582 8.2406 4.11851 8.27489 2.72783 8.48759C2.05116 8.59314 1.38301 8.74529 0.786252 8.988C0.638209 9.04854 0.481651 8.9955 0.418111 8.89156C0.359811 8.79566 0.394529 8.68207 0.494097 8.61885H0.494753Z" fill="#1D1D1B"/>
<path d="M25.642 1.99146C24.4465 1.59982 23.1672 1.1846 21.8918 0.950465L21.8184 0.937071C21.506 0.879744 21.3094 0.62579 21.3795 0.370229C21.4398 0.150028 21.6789 0.000548295 21.9435 1.25268e-05C23.2576 -0.00373785 25.1271 0.835275 25.9551 1.64804C26.1333 1.8227 25.9086 2.08094 25.642 1.99146Z" fill="#1D1D1B"/>
<path d="M26.3044 8.98795C25.1855 8.53254 23.5184 8.3252 22.3013 8.3102C20.9925 8.29948 19.4433 8.48539 18.2623 8.95741C18.1444 9.00455 18.0153 8.96223 17.9642 8.87597C17.9157 8.79507 17.9485 8.69863 18.0363 8.6488C19.1885 7.99195 20.9008 7.69996 22.302 7.68603C23.6973 7.67478 25.5052 7.92605 26.5965 8.61827C26.7144 8.69274 26.7354 8.8315 26.6443 8.92794C26.569 9.00777 26.4314 9.04045 26.3044 8.98741V8.98795Z" fill="#1D1D1B"/>
<path d="M25.0965 16.1416C25.0323 16.0676 24.3681 15.2415 24.3072 15.1654C24.0563 14.8557 23.713 14.4394 23.5467 14.1169C23.4281 13.8881 23.7085 13.6754 23.9711 13.7697C24.9701 14.133 25.8099 15.2222 25.6127 16.0655C25.5688 16.2536 25.2622 16.3339 25.0965 16.1416Z" fill="#1D1D1B"/>
<path d="M1.47866 16.0657C1.27755 15.2053 2.14222 14.1257 3.12022 13.7699C3.38486 13.6735 3.65933 13.8932 3.54732 14.1118C3.44316 14.3154 3.31281 14.49 3.17655 14.6722C2.9237 15.0027 1.97912 16.16 1.9837 16.1546C1.8409 16.3202 1.52582 16.2634 1.47866 16.0652V16.0657Z" fill="#1D1D1B"/>
<path d="M24.8081 14.9602C24.4085 15.2774 24.1 15.4982 23.65 15.7703C21.1994 17.2694 18.0735 17.9209 15.0321 18.0945C11.0867 18.2943 6.52293 17.7414 3.36164 15.781C2.88935 15.4864 2.63257 15.3021 2.21399 14.9586L2.46946 14.7143C4.07434 15.6348 5.88163 16.2306 7.7564 16.5884C11.2583 17.2608 15.7219 17.2716 19.2552 16.5799C20.8313 16.2707 22.1152 15.8566 23.3067 15.3326C23.7764 15.1279 24.119 14.9431 24.5579 14.7127L24.8081 14.9608V14.9602Z" fill="#1D1D1B"/>
<path d="M9.85557 18.784C12.3906 19.3899 14.6309 19.391 17.1706 18.784C17.2826 18.7572 17.39 18.8102 17.4201 18.8944C17.4444 18.9619 17.4123 19.0326 17.3461 19.0717C15.2421 20.3265 11.7257 20.2922 9.68001 19.0717C9.59093 19.0187 9.57127 18.9169 9.63612 18.844C9.69049 18.7829 9.7822 18.7658 9.85557 18.784Z" fill="#1D1D1B"/>
</svg>
