<svg width="18" height="18" viewBox="0 0 18 18" fill="none" xmlns="http://www.w3.org/2000/svg">
<path fill-rule="evenodd" clip-rule="evenodd" d="M2.25 0.0649622C1.61897 0.203525 1.13105 0.47615 0.731344 0.913494C0.435047 1.23768 0.247781 1.56838 0.10964 2.01135L0 2.36292V8.80823V15.2535L0.10964 15.6051C0.391969 16.5104 0.99 17.1292 1.89638 17.4539L2.29688 17.5973L8.625 17.6104C15.669 17.625 15.3715 17.6371 16.039 17.3096C16.6903 16.9899 17.1718 16.435 17.4347 15.7009L17.5781 15.3004L17.5928 12.441C17.6029 10.4745 17.5915 9.52743 17.5564 9.40799C17.4065 8.89828 16.8547 8.66057 16.4107 8.91445C16.31 8.97206 16.1834 9.0787 16.1294 9.15145C16.0329 9.28148 16.0309 9.33234 16.0078 12.1749C15.9851 14.9821 15.9815 15.0722 15.8865 15.2775C15.7618 15.5469 15.5277 15.781 15.2583 15.9057C15.0472 16.0034 15.0362 16.0035 8.78906 16.0035C2.54194 16.0035 2.53087 16.0034 2.3198 15.9057C2.05041 15.781 1.81631 15.5469 1.69162 15.2775C1.59394 15.0664 1.59375 15.0554 1.59375 8.80823C1.59375 2.5611 1.59394 2.55004 1.69162 2.33896C1.81631 2.06957 2.05041 1.83548 2.3198 1.71079C2.52511 1.61577 2.61516 1.61221 5.42241 1.58948C8.26495 1.56642 8.31581 1.5644 8.44584 1.46788C8.62884 1.33209 8.78737 1.0372 8.78831 0.830806C8.78981 0.488337 8.62289 0.23479 8.29688 0.0843216C8.121 0.00318102 7.93622 -0.00206905 5.32031 0.000462198C3.19467 0.0025247 2.46436 0.0178528 2.25 0.0649622ZM15.7266 0.845009C15.5991 0.882322 14.808 1.64666 12.1758 4.27565L8.78906 7.65829V6.54388C8.78906 5.52623 8.781 5.41373 8.69639 5.24779C8.56289 4.98613 8.35617 4.85587 8.03794 4.83285C7.71867 4.80974 7.53877 4.8892 7.35009 5.13656L7.21875 5.30873V7.61756C7.21875 9.87632 7.22086 9.92915 7.31541 10.0558C7.36856 10.127 7.47028 10.2287 7.54148 10.2819C7.66814 10.3764 7.72097 10.3785 9.97973 10.3785H12.2886L12.4607 10.2472C12.7081 10.0585 12.7875 9.87862 12.7644 9.55935C12.7414 9.24112 12.6112 9.0344 12.3495 8.9009C12.1836 8.81629 12.0711 8.80823 11.0534 8.80823H9.939L13.3213 5.42151C16.3409 2.39788 16.7092 2.01337 16.7561 1.83487C16.9213 1.20693 16.3538 0.661353 15.7266 0.845009Z" fill="white"/>
</svg>
