<svg width="24" height="20" viewBox="0 0 24 20" fill="none" xmlns="http://www.w3.org/2000/svg">
<path d="M22.4366 19.4666C19.4012 17.7675 14.5314 17.2885 10.2912 17.4369C8.86745 17.4923 7.43132 17.6147 5.9952 17.8638C4.19256 18.1747 2.40163 18.6979 1.08507 19.4625C0.839435 19.6053 0.43784 19.6067 0.188954 19.4662C-0.0605809 19.3256 -0.0631806 19.0958 0.182456 18.9534C0.227294 18.9274 0.271483 18.9102 0.264984 18.9132C1.56205 18.3755 2.96113 17.9828 4.36347 17.7225C7.58078 17.1212 11.4083 16.9922 14.7341 17.1986C17.8397 17.3897 20.6781 17.8876 23.2404 18.9091C23.5374 19.0281 23.5952 19.2542 23.4003 19.4149C23.1819 19.5945 22.7277 19.6272 22.4372 19.4669L22.4366 19.4666Z" fill="#1D1D1B"/>
<path d="M7.93702 19.7201C9.98482 18.5463 13.4591 18.5442 15.5114 19.7201C15.5995 19.7704 15.6189 19.8671 15.5548 19.9362C15.5043 19.9901 15.4182 20.0115 15.3406 19.9937C14.7335 19.8554 14.1568 19.745 13.5361 19.6712C12.3653 19.5294 11.1265 19.5243 9.91298 19.6712C8.96739 19.7836 8.09753 19.9962 8.10853 19.9937C8.00433 20.0176 7.89495 19.9708 7.86453 19.8884C7.84058 19.8243 7.87229 19.7572 7.93766 19.7201H7.93702Z" fill="#1D1D1B"/>
<path d="M1.5714 3.11988C1.72543 2.03456 2.90208 0.52609 4.04119 0.0495438C4.30137 -0.0592939 4.62433 0.0180126 4.76284 0.222465C4.87416 0.386738 4.83209 0.58356 4.67611 0.710707C4.43017 0.91109 4.4224 0.905494 3.97129 1.30016C3.27747 1.91301 1.91248 3.24093 1.91766 3.23584C1.79404 3.35282 1.55068 3.27348 1.57075 3.11988H1.5714Z" fill="#1D1D1B"/>
<path d="M21.5939 3.23327C21.3156 2.97033 19.8458 1.52594 19.2037 1.00719C19.1261 0.940561 18.8322 0.705596 18.8387 0.710682C18.6335 0.544374 18.6394 0.27889 18.851 0.117668C19.0212 -0.0120221 19.2743 -0.0338901 19.473 0.0490096C20.6496 0.541322 21.7926 2.06251 21.9428 3.11935C21.9641 3.27142 21.7214 3.35432 21.5933 3.23276L21.5939 3.23327Z" fill="#1D1D1B"/>
<path d="M17.636 4.36835C19.4339 4.26002 21.5083 5.27973 22.3697 6.54968C22.4099 6.60918 22.3814 6.68242 22.3063 6.71395C22.2474 6.73836 22.1782 6.73022 22.1309 6.69767C20.9905 5.90275 20.1854 5.51877 18.812 5.11597C18.4288 5.00408 17.5648 4.78945 17.5712 4.79098C17.4263 4.75385 17.3473 4.63077 17.3945 4.51685C17.4301 4.4309 17.5279 4.37445 17.636 4.36784V4.36835Z" fill="#1D1D1B"/>
<path d="M5.94014 4.79203C4.27938 5.21975 3.31243 5.45929 1.89372 6.35339C1.64195 6.51512 1.37854 6.70177 1.38501 6.69719C1.32093 6.74195 1.2232 6.73738 1.16689 6.68753C1.12288 6.64837 1.11641 6.59294 1.14618 6.54971C2.0044 5.28485 4.07356 4.25954 5.87995 4.36838C6.03205 4.37753 6.14596 4.48179 6.13431 4.60131C6.1259 4.6898 6.04952 4.76558 5.94079 4.79203H5.94014Z" fill="#1D1D1B"/>
<path d="M22.0226 9.05099C22.2995 7.41576 20.837 5.91375 18.7561 5.69615C16.6751 5.47854 14.7637 6.62775 14.4868 8.26297C14.2098 9.89819 15.6723 11.4002 17.7533 11.6178C19.8342 11.8354 21.7457 10.6862 22.0226 9.05099Z" fill="white"/>
<path d="M18.7094 8.19811C19.3896 7.66364 19.3896 6.79709 18.7094 6.26261C18.0292 5.72814 16.9265 5.72814 16.2463 6.26261C15.5662 6.79708 15.5662 7.66364 16.2463 8.19812C16.9265 8.73259 18.0292 8.73259 18.7094 8.19811Z" fill="#BDBDBD"/>
<path d="M18.2542 11.7934C16.0511 11.7934 14.2589 10.3851 14.2589 8.65387C14.2589 6.92264 16.0511 5.51436 18.2542 5.51436C20.4573 5.51436 22.2495 6.92264 22.2495 8.65387C22.2495 10.3851 20.4573 11.7934 18.2542 11.7934ZM18.2542 5.82002C16.2653 5.82002 14.6472 7.09149 14.6472 8.65438C14.6472 10.2173 16.2653 11.4887 18.2542 11.4887C20.2431 11.4887 21.8612 10.2173 21.8612 8.65438C21.8612 7.09149 20.2431 5.82002 18.2542 5.82002Z" fill="#1D1D1B"/>
<path d="M6.59158 11.4528C8.55639 10.8718 9.54986 9.14926 8.81055 7.60531C8.07124 6.06135 5.87912 5.28068 3.9143 5.86163C1.94949 6.44258 0.956019 8.16516 1.69533 9.70911C2.43464 11.2531 4.62676 12.0337 6.59158 11.4528Z" fill="white"/>
<path d="M4.88207 8.56217C5.81882 8.39047 6.40107 7.65455 6.18257 6.91845C5.96406 6.18235 5.02754 5.72482 4.09079 5.89652C3.15404 6.06822 2.57179 6.80414 2.79029 7.54024C3.0088 8.27634 3.94532 8.73388 4.88207 8.56217Z" fill="#BDBDBD"/>
<path d="M5.26006 11.7934C3.05692 11.7934 1.26477 10.3851 1.26477 8.65387C1.26477 6.92264 3.05692 5.51436 5.26006 5.51436C7.4632 5.51436 9.25535 6.92264 9.25535 8.65387C9.25535 10.3851 7.4632 11.7934 5.26006 11.7934ZM5.26006 5.82002C3.27115 5.82002 1.6531 7.09149 1.6531 8.65438C1.6531 10.2173 3.27115 11.4887 5.26006 11.4887C7.24897 11.4887 8.86702 10.2173 8.86702 8.65438C8.86702 7.09149 7.24897 5.82002 5.26006 5.82002Z" fill="#1D1D1B"/>
</svg>
