<svg width="27" height="20" viewBox="0 0 27 20" fill="none" xmlns="http://www.w3.org/2000/svg">
<path d="M5.54851 11.5153C7.49245 11.1077 8.69638 9.37745 8.23757 7.65064C7.77876 5.92383 5.83094 4.85437 3.887 5.26193C1.94306 5.6695 0.739128 7.39975 1.19794 9.12656C1.65675 10.8534 3.60457 11.9228 5.54851 11.5153Z" fill="#BDBDBD"/>
<path d="M23.7333 10.658C25.1457 9.40346 25.1457 7.36937 23.7333 6.11478C22.321 4.86019 20.0311 4.86019 18.6188 6.11478C17.2065 7.36937 17.2065 9.40346 18.6188 10.658C20.0311 11.9126 22.321 11.9126 23.7333 10.658Z" fill="#BDBDBD"/>
<path d="M8.67509 7.96815C8.27298 8.54797 7.58514 9.04192 6.92687 9.40185C4.63675 10.6572 1.74316 10.8678 0.0854596 10.3504C0.0189544 10.3296 -0.0161467 10.2645 0.00725323 10.2054C0.0275742 10.154 0.0848439 10.1239 0.143344 10.1299C0.885369 10.2098 1.63232 10.1764 2.37619 10.0867C3.92921 9.8958 5.20574 9.49484 6.58633 8.86743C7.24276 8.56329 7.87703 8.22305 8.43555 7.79092C8.5076 7.73512 8.60551 7.74715 8.6597 7.8024C8.70588 7.84945 8.71019 7.91673 8.67509 7.96705V7.96815Z" fill="#1D1D1B"/>
<path d="M1.03727 3.14209C2.58844 2.33033 3.7726 1.73081 5.38166 0.741818C5.42723 0.711186 5.80963 0.472143 5.9685 0.357272C6.0658 0.293819 6.14154 0.2331 6.22898 0.174571L6.30596 0.123153C6.61262 -0.0808812 7.04737 -0.0256334 7.27705 0.246229C7.46425 0.467767 7.45687 0.765886 7.2826 0.979219C6.16494 2.34181 3.16851 3.53757 1.16535 3.56383C0.904876 3.56711 0.806967 3.2586 1.03604 3.14154L1.03727 3.14209Z" fill="#1D1D1B"/>
<path d="M24.7278 3.56439C22.6957 3.53813 19.7128 2.32323 18.6106 0.979777C18.3852 0.704632 18.4529 0.318992 18.7627 0.118788C19.0151 -0.0442205 19.3495 -0.0349213 19.5872 0.123164C19.7886 0.257181 19.8157 0.286172 19.9253 0.35783C20.0829 0.471607 20.4604 0.707368 20.5121 0.742376C22.1181 1.72972 23.2955 2.32542 24.8565 3.14265C25.0881 3.26299 24.9852 3.56767 24.7272 3.56494L24.7278 3.56439Z" fill="#1D1D1B"/>
<path d="M17.4576 7.79163C18.4619 8.56838 20.1006 9.27456 21.3494 9.64215C23.9936 10.414 25.8896 10.1153 25.7498 10.1306C25.82 10.123 25.8834 10.1673 25.892 10.2296C25.8994 10.2838 25.8631 10.333 25.8077 10.3505C25.4339 10.467 25.0423 10.536 24.65 10.5743C21.6505 10.8839 18.2754 9.49173 17.218 7.96776C17.1725 7.90212 17.1953 7.81624 17.2692 7.77576C17.3671 7.72216 17.4496 7.78506 17.4576 7.79163Z" fill="#1D1D1B"/>
<path d="M10.8917 19.6594C10.9053 19.5937 10.9416 19.4734 10.9773 19.4001C11.5143 18.1677 13.4971 17.595 14.7724 18.1464C14.9646 18.2295 14.9818 18.4653 14.8082 18.5708L14.7398 18.6119C14.5545 18.7235 13.172 19.1665 12.5969 19.4028C11.9854 19.649 11.7896 19.7677 11.3807 19.957L11.3597 19.9668C11.1184 20.0784 10.8431 19.8919 10.8911 19.6588L10.8917 19.6594Z" fill="#1D1D1B"/>
<path d="M22.6318 11.8274C23.2094 13.2747 24.5494 16.0535 23.4828 16.7017C23.0081 17.1065 22.1663 17.083 21.7008 16.6317C20.6545 15.8222 22.4637 12.4001 22.6318 11.8268V11.8274Z" fill="#BDBDBD"/>
</svg>
